<svg width="80" height="80" fill="none" xmlns="http://www.w3.org/2000/svg"><path d="M35.932 32.542c0 9.736-7.892 17.627-17.627 17.627S.678 42.279.678 32.543c0-9.735 7.892-17.627 17.627-17.627s17.627 7.892 17.627 17.627z" fill="#89898B"/><path d="M79.322 42.034c0 14.977-12.141 27.119-27.119 27.119-14.977 0-27.118-12.142-27.118-27.12 0-14.977 12.14-27.118 27.118-27.118 14.978 0 27.119 12.141 27.119 27.119z" fill="url(#paint0_linear)"/><path d="M77.966 70.508a2.712 2.712 0 11-5.424 0 2.712 2.712 0 015.424 0z" fill="#89898B"/><path d="M38.644 9.492a4.068 4.068 0 11-8.136-.001 4.068 4.068 0 018.136 0z" fill="#B6ACAC"/><path d="M4.44 35.364c-.028-.312-.646-7.718 3.73-12.51A12.69 12.69 0 0118 18.97v1.867c-2.92-.179-6.45 1.577-8.5 3.662-3.577 3.915-3.317 10.422-3.305 10.487l-1.754.377zM73.5 40.5c-2.517-18.874-19.272-20-19.94-20v-1.517c.188 0 18.847.247 21.682 21.516H73.5z" fill="#E6F1FD"/><path d="M48.136 66.44c0 7.49-6.071 13.56-13.56 13.56-7.489 0-13.559-6.07-13.559-13.56 0-7.488 6.07-13.559 13.56-13.559 7.488 0 13.559 6.07 13.559 13.56zM9.66 62.818v1.584H7.662v2.178H5.88v-2.178H3.882v-1.584H5.88V60.64h1.782v2.178H9.66z" fill="#89898B"/><path d="M71.026 10.699v.792h-1.298v1.408h-.88v-1.408H67.55v-.792h1.298V9.291h.88v1.408h1.298z" fill="#B4AAAA"/><path d="M50.026 27.699v.792h-1.298v1.408h-.88v-1.408H46.55v-.792h1.298v-1.408h.88v1.408h1.298z" fill="#CDBFBF"/><defs><linearGradient id="paint0_linear" x1="52" y1="69" x2="61.5" y2="15" gradientUnits="userSpaceOnUse"><stop stop-color="#8B8989"/><stop offset="1" stop-color="#9B7B7B" stop-opacity=".29"/></linearGradient></defs></svg>