<svg width="7" height="16" fill="none" xmlns="http://www.w3.org/2000/svg"><path d="M4.892 6.02v3.652c0 .364-.123.712-.342.969a1.088 1.088 0 01-.825.4c-.31 0-.607-.143-.826-.4a1.498 1.498 0 01-.342-.969v-6.39c0-.605.205-1.186.57-1.614C3.492 1.24 3.987 1 4.503 1a1.7 1.7 0 01.745.174c.236.114.45.283.631.494.18.212.324.464.422.74.098.278.148.575.148.874v8.216c0 .848-.287 1.66-.798 2.26-.51.599-1.204.935-1.926.935-.723 0-1.416-.336-1.927-.935-.511-.6-.798-1.412-.798-2.26V6.021" stroke="#FF0E0E" stroke-width=".8" stroke-miterlimit="10"/></svg>