<svg width="80" height="80" fill="none" xmlns="http://www.w3.org/2000/svg"><path d="M8.215 45.98s1.514-3.552-1.044-7.259C4.611 35.015.743 34.367.743 34.367s-1.663 4.197.83 7.811c2.496 3.612 6.642 3.802 6.642 3.802zm17.666 19.636s3.514-2.213 3.902-6.586c.38-4.372-3.139-7.202-3.139-7.202s-3.043 2.47-3.439 6.958c-.393 4.496 2.676 6.83 2.676 6.83zm9.312 7.038s2.73-3.136 1.84-7.434c-.894-4.303-5.078-5.994-5.078-5.994s-2.203 3.249-1.29 7.657c.912 4.408 4.528 5.77 4.528 5.77zM10.575 54.971s.395-3.832-3.139-6.621C3.896 45.559.01 46.08.01 46.08s-.357 4.501 3.092 7.218c3.452 2.72 7.473 1.673 7.473 1.673zm5.359 8.457s-.468-3.83-4.532-5.763c-4.071-1.935-7.744-.563-7.744-.563s.655 4.463 4.616 6.352c3.971 1.882 7.66-.026 7.66-.026zm.408 2.329c-4.462-.61-7.551 1.807-7.551 1.807s1.979 4.056 6.328 4.658c4.349.59 7.284-2.342 7.284-2.342s-1.596-3.511-6.06-4.123zm8.848 6.778c-4.504-.069-7.275 2.7-7.275 2.7s2.445 3.799 6.835 3.868c4.393.067 6.955-3.198 6.955-3.198s-2.007-3.3-6.515-3.37z" fill="#89898B"/><path d="M12.345 39.15l-2.107-.429c-.047.229-5.087 22.571 27.924 38.539l.933-1.936c-31.433-15.196-26.927-35.3-26.75-36.174z" fill="#7D7D7E"/><path d="M15.119 46.407s3.915-1.37 5.267-5.552c1.354-4.175-1.447-7.717-1.447-7.717s-3.517 1.73-4.907 6.018c-1.386 4.282 1.087 7.25 1.087 7.25zm1.645 4.622c-.812 4.433 2.023 7.048 2.023 7.048s3.706-1.874 4.503-6.19c.79-4.324-2.45-7.46-2.45-7.46s-3.256 2.167-4.076 6.602zM11.245 36.74s3.234-2.111 3.16-6.614c-.07-4.504-2.93-7.193-2.93-7.193s-3.71 2.566-3.64 6.964c.069 4.39 3.41 6.842 3.41 6.842z" fill="#89898B"/><path d="M56.78 36.642c0-2.545.143-21.073.143-21.073l.013-1.488-1.388-.532c-.151-.054-2.331-.859-6.24-1.496l2.935-10.92-7.334 5.964L40.082.925V.9l-.01.01-.01-.01v.025l-4.833 6.172-7.33-5.963 2.93 10.909c-3.997.64-6.228 1.462-6.375 1.519l-1.385.53.013 1.49s.141 18.528.141 21.072c0 3.843 5.742 14.827 16.684 15.138v.002c.006 0 .01 0 .016-.002.059.002.116.015.175.015v-.028c10.94-.316 16.681-11.295 16.681-15.137zM39.904 18.83v.01H27.397v-.86h12.698v-.014H52.6v.864H39.905z" fill="url(#paint0_linear)"/><path d="M71.788 45.967s4.143-.187 6.642-3.804c2.495-3.611.827-7.809.827-7.809s-3.868.648-6.428 4.354c-2.558 3.704-1.041 7.26-1.041 7.26z" fill="#9C9697"/><path d="M53.356 51.82s-3.517 2.83-3.139 7.2c.386 4.372 3.905 6.585 3.905 6.585s3.066-2.334 2.675-6.822c-.398-4.493-3.441-6.963-3.441-6.963zM42.969 65.21c-.89 4.297 1.84 7.433 1.84 7.433s3.611-1.357 4.53-5.768c.912-4.41-1.291-7.657-1.291-7.657s-4.187 1.686-5.08 5.992zM79.99 46.067s-3.887-.521-7.426 2.27c-3.534 2.79-3.141 6.622-3.141 6.622s4.02 1.043 7.47-1.674c3.451-2.717 3.097-7.218 3.097-7.218zM68.6 57.653c-4.063 1.933-4.534 5.76-4.534 5.76s3.694 1.907 7.657.028c3.961-1.884 4.617-6.354 4.617-6.354s-3.67-1.37-7.74.566zm-4.94 8.094c-4.462.609-6.06 4.123-6.06 4.123s2.935 2.938 7.284 2.341c4.349-.598 6.328-4.66 6.328-4.66s-3.092-2.416-7.552-1.804zM48.297 75.89s2.563 3.267 6.956 3.197c4.39-.066 6.834-3.868 6.834-3.868s-2.77-2.768-7.274-2.7c-4.508.075-6.516 3.37-6.516 3.37z" fill="#89898B"/><path d="M69.767 38.71l-2.107.43c.175.871 3.878 21.538-26.711 36.254l.933 1.938c32.17-15.487 27.93-38.395 27.885-38.621z" fill="#7D7D7E"/><path d="M64.884 46.394s2.472-2.966 1.087-7.249c-1.39-4.287-4.907-6.02-4.907-6.02s-2.802 3.542-1.444 7.717c1.349 4.182 5.264 5.552 5.264 5.552zm-8.172 5.48c.797 4.316 4.504 6.19 4.504 6.19s2.837-2.62 2.023-7.048c-.818-4.437-4.077-6.604-4.077-6.604s-3.241 3.136-2.45 7.462z" fill="#89898B"/><path d="M68.757 36.729s3.342-2.455 3.411-6.845c.07-4.396-3.642-6.96-3.642-6.96s-2.858 2.688-2.93 7.191c-.072 4.504 3.161 6.614 3.161 6.614z" fill="#A7A0A1"/><defs><linearGradient id="paint0_linear" x1="50.746" y1="14.925" x2="32.836" y2="57.313" gradientUnits="userSpaceOnUse"><stop stop-color="#B1A8A8"/><stop offset="1" stop-color="#89898B"/></linearGradient></defs></svg>