<svg width="24" height="24" fill="none" xmlns="http://www.w3.org/2000/svg"><path d="M16.546.75H7.45a6.703 6.703 0 00-6.7 6.688v9.075a6.703 6.703 0 006.701 6.688h9.095a6.703 6.703 0 006.704-6.688V7.438A6.703 6.703 0 0016.546.75z" stroke="#FF0E0E" stroke-miterlimit="10"/><path d="M12 6.169a5.806 5.806 0 105.818 5.806A5.82 5.82 0 0012 6.17v0zm0 9.356a3.548 3.548 0 11.016-7.096A3.548 3.548 0 0112 15.525zm7.224-9.313a1.394 1.394 0 11-2.79.006 1.394 1.394 0 012.79-.006z" stroke="#FF0E0E" stroke-miterlimit="10"/></svg>