<svg width="80" height="80" fill="none" xmlns="http://www.w3.org/2000/svg"><path d="M68.75 40.295l-2.534 3.455h2.534v-3.455z" fill="#000"/><path d="M60 5.875v36.364c2.047-4.206 6.25-13.72 6.25-20.989 0-6.319-3.766-12.188-6.25-15.375z" fill="url(#paint0_linear)"/><path d="M57.5 42.24V5.881c-2.485 3.193-6.25 9.066-6.25 15.369 0 7.276 4.201 16.785 6.25 20.99z" fill="url(#paint1_linear)"/><path d="M62.05 43.75h1.066l9.912-13.515a16.538 16.538 0 003.222-9.843c0-8.492-6.397-15.506-14.625-16.507 2.686 3.33 7.125 9.949 7.125 17.365 0 8.116-4.642 18.36-6.7 22.5z" fill="url(#paint2_linear)"/><path d="M31.25 51.25h-17.5v6.25c0 .69.56 1.25 1.25 1.25h52.5c.69 0 1.25-.56 1.25-1.25V45.227L64.616 56.25H52.883l-4.688-12.5h3.087l-8.827-12.038a18.994 18.994 0 01-3.672-10.462H15c-.69 0-1.25.561-1.25 1.25v6.35c.41-.059.825-.1 1.25-.1a8.77 8.77 0 016.469 2.869 7.287 7.287 0 012.281-.369c3.266 0 6.045 2.102 7.071 5.023.143-.008.285-.023.429-.023 4.136 0 7.5 3.364 7.5 7.5s-3.364 7.5-7.5 7.5zm12.5-5c2.758 0 5 2.242 5 5s-2.242 5-5 5H25v-2.5h18.75c1.379 0 2.5-1.121 2.5-2.5s-1.121-2.5-2.5-2.5a2.503 2.503 0 00-2.5 2.5h-2.5c0-2.758 2.242-5 5-5z" fill="#89898B"/><path d="M62.884 53.75l2.812-7.5H51.804l2.812 7.5h8.268zM11.25 22.5A3.755 3.755 0 0115 18.75h23.834c.072-.85.2-1.685.381-2.5H15a6.257 6.257 0 00-6.25 6.25v8.889a8.767 8.767 0 012.5-1.781V22.5z" fill="#89898B"/><path d="M54.384 43.75h1.066c-2.058-4.14-6.7-14.384-6.7-22.5 0-7.416 4.439-14.035 7.125-17.365C47.648 4.886 41.25 11.9 41.25 20.393c0 3.564 1.115 6.967 3.222 9.842l9.912 13.515z" fill="url(#paint3_linear)"/><path d="M32.023 66.25l-2.5 5h23.454l-2.5-5H32.023zM71.25 57.5a3.755 3.755 0 01-3.75 3.75H15a3.755 3.755 0 01-3.75-3.75v-6.25h-2.5v6.25A6.257 6.257 0 0015 63.75h52.5a6.257 6.257 0 006.25-6.25V33.477l-2.5 3.41V57.5z" fill="#7D7D7E"/><path d="M31.25 48.75c2.758 0 5-2.242 5-5s-2.242-5-5-5a7.446 7.446 0 01-3 6.001l-1.501-2a4.962 4.962 0 002.001-4.001c0-2.758-2.242-5-5-5-.719 0-1.438.167-2.134.499l-.941.446-.61-.845A6.267 6.267 0 0015 31.25a6.258 6.258 0 00-6.124 5.006c4.078.069 7.374 3.4 7.374 7.494h-2.5c0-2.758-2.242-5-5-5s-5 2.242-5 5 2.242 5 5 5h22.5z" fill="url(#paint4_linear)"/><path d="M57.5 73.75H25a3.757 3.757 0 00-3.536 2.5h39.572a3.757 3.757 0 00-3.536-2.5z" fill="#7D7D7E"/><path d="M14.66 70.818v1.584h-1.998v2.178H10.88v-2.178H8.882v-1.584h1.998V68.64h1.782v2.178h1.998zm57.696-4.414v.672h-1.488v1.62h-.756v-1.62h-1.488v-.672h1.488v-1.62h.756v1.62h1.488z" fill="#89898B"/><path d="M31.392 11.308v.864h-1.416v1.536h-.96v-1.536H27.6v-.864h1.416V9.772h.96v1.536h1.416z" fill="#B1A8A8"/><defs><linearGradient id="paint0_linear" x1="66" y1="6" x2="53" y2="42" gradientUnits="userSpaceOnUse"><stop stop-color="#B6ACAC"/><stop offset="1" stop-color="#8E8A8A"/></linearGradient><linearGradient id="paint1_linear" x1="60" y1="4.5" x2="47.5" y2="40.5" gradientUnits="userSpaceOnUse"><stop stop-color="#B6ACAC"/><stop offset="1" stop-color="#8E8A8A"/></linearGradient><linearGradient id="paint2_linear" x1="76" y1="4" x2="60" y2="44" gradientUnits="userSpaceOnUse"><stop stop-color="#B6ACAC"/><stop offset="1" stop-color="#8E8A8A"/></linearGradient><linearGradient id="paint3_linear" x1="54" y1="1.5" x2="41" y2="42" gradientUnits="userSpaceOnUse"><stop stop-color="#B6ACAC"/><stop offset="1" stop-color="#8E8A8A"/></linearGradient><linearGradient id="paint4_linear" x1="28.5" y1="31" x2="14.5" y2="51" gradientUnits="userSpaceOnUse"><stop stop-color="#B1A8A8"/><stop offset="1" stop-color="#89898B"/></linearGradient></defs></svg>